<svg id="Layer_1" enable-background="new 0 0 512 512" height="512" viewBox="0 0 512 512" width="512" xmlns="http://www.w3.org/2000/svg"><g><g><g><path d="m255.997 15.007c-133.104.003-241 107.9-241 241.003 0 133.1 107.896 240.997 240.997 240.997 133.103 0 241.003-107.897 241.003-240.997 0-133.099-107.9-241.003-241-241.003z" fill="#78ffa9"/></g><g><path d="m368.464 223.877-80.332-.004v-80.33c0-17.748-14.386-32.133-32.135-32.133-17.745 0-32.132 14.388-32.129 32.13l-.001 80.337h-80.335c-17.747 0-32.135 14.385-32.133 32.133-.002 17.746 14.387 32.134 32.133 32.131h80.335l-.003 80.336c.001 17.745 14.389 32.134 32.133 32.13 17.749.004 32.135-14.388 32.135-32.13v-80.336h80.332c17.747 0 32.133-14.385 32.133-32.134 0-17.745-14.388-32.134-32.133-32.13z" fill="#e7f0ef"/></g></g><g><path d="m437.02 74.982c-48.354-48.353-112.641-74.982-181.02-74.982-68.382.002-132.669 26.631-181.021 74.982s-74.979 112.64-74.979 181.021c0 68.38 26.628 132.667 74.979 181.018 48.351 48.35 112.638 74.979 181.018 74.979 68.381 0 132.669-26.629 181.021-74.979s74.982-112.638 74.982-181.018-26.629-132.667-74.98-181.021zm-181.023 407.018c-124.615 0-225.997-101.382-225.997-225.997 0-124.616 101.383-226 226-226.003 124.617 0 226 101.385 226 226.003 0 124.615-101.385 225.997-226.003 225.997z"/><path d="m368.468 208.87-65.333-.003v-65.331c0-25.989-21.145-47.133-47.135-47.133-12.589 0-24.425 4.903-33.327 13.806s-13.804 20.738-13.802 33.324l-.001 65.337h-65.335c-12.59 0-24.427 4.902-33.328 13.804-8.903 8.903-13.806 20.74-13.804 33.326-.002 12.59 4.899 24.426 13.801 33.328s20.737 13.806 33.331 13.806h65.334l-.002 65.337c.001 25.986 21.142 47.129 47.13 47.129h.01c25.986 0 47.128-21.143 47.128-47.13v-65.336h65.332c25.989 0 47.133-21.144 47.133-47.134 0-25.987-21.141-47.13-47.132-47.13zm-.001 64.264h-80.332c-8.284 0-15 6.716-15 15v80.336c0 9.445-7.684 17.13-17.128 17.13h-.014c-9.443 0-17.125-7.685-17.126-17.129l.003-80.336c0-3.979-1.58-7.795-4.394-10.607-2.813-2.813-6.628-4.394-10.606-4.394h-80.341c-4.574 0-8.875-1.782-12.11-5.018s-5.017-7.536-5.016-12.116c-.001-4.575 1.78-8.877 5.016-12.112s7.539-5.018 12.116-5.018h80.335c8.284 0 15-6.716 15-15l.001-80.339c-.001-4.574 1.78-8.875 5.016-12.109 3.236-3.236 7.538-5.019 12.113-5.019 9.448 0 17.135 7.686 17.135 17.133v80.33c0 8.284 6.715 14.999 14.999 15l80.34.004c9.443 0 17.126 7.685 17.126 17.13 0 9.447-7.686 17.134-17.133 17.134z"/></g></g></svg>