<svg fill="none" height="512" viewBox="0 0 24 24" width="512" xmlns="http://www.w3.org/2000/svg"><path clip-rule="evenodd" d="m5.99995 5c0-.26522.10535-.51957.29289-.70711.18754-.18753.44189-.29289.70711-.29289.26521 0 .51957.10536.7071.29289.18754.18754.2929.44189.2929.70711s-.10536.51957-.2929.70711c-.18753.18753-.44189.29289-.7071.29289-.26522 0-.51957-.10536-.70711-.29289-.18754-.18754-.29289-.44189-.29289-.70711zm2 2.83c.66749-.23591 1.23009-.7002 1.58836-1.31081.35826-.61061.48909-1.32821.36945-2.02598-.11968-.69776-.48218-1.33075-1.02344-1.78708s-1.22642-.70662-1.93437-.70662c-.70796 0-1.39312.25029-1.93438.70662-.54125.45633-.90376 1.08932-1.02344 1.78708-.11967.69777.01119 1.41537.36946 2.02598.35826.61061.92086 1.0749 1.58836 1.31081v8.34c-.66303.2341-1.2228.6936-1.58165 1.2982-.35885.6047-.49398 1.3162-.38182 2.0103s.4645 1.3269.99552 1.7877c.53103.4609 1.20703.7207 1.91004.7341.70301.0133 1.38839-.2206 1.93654-.661.54815-.4403.92427-1.0592 1.06272-1.7486.1385-.6893.03045-1.4054-.30517-2.0233s-.87753-1.0983-1.53118-1.3574c.17346-.6348.5508-1.1951 1.07391-1.5944.5231-.3993 1.16294-.6156 1.82104-.6156h2c1.5913 0 3.1175-.6321 4.2427-1.7574 1.1252-1.1252 1.7573-2.6513 1.7573-4.2426v-.17c.6675-.23591 1.2301-.7002 1.5884-1.31081s.4891-1.32821.3695-2.02598c-.1197-.69776-.4822-1.33075-1.0235-1.78708-.5412-.45633-1.2264-.70662-1.9344-.70662-.7079 0-1.3931.25029-1.9343.70662-.5413.45633-.9038 1.08932-1.0235 1.78708-.1196.69777.0112 1.41537.3695 2.02598s.9209 1.0749 1.5883 1.31081v.17c0 1.06087-.4214 2.0783-1.1715 2.8284-.7502.7502-1.7676 1.1716-2.8285 1.1716h-2c-1.08206-.0016-2.13522.3495-2.99995 1zm9.99995-1.83c.2653 0 .5196-.10536.7072-.29289.1875-.18754.2928-.44189.2928-.70711s-.1053-.51957-.2928-.70711c-.1876-.18753-.4419-.29289-.7072-.29289-.2652 0-.5195.10536-.7071.29289-.1875.18754-.2929.44189-.2929.70711s.1054.51957.2929.70711c.1876.18753.4419.29289.7071.29289zm-11.99995 13c0-.2652.10535-.5196.29289-.7071s.44189-.2929.70711-.2929c.26521 0 .51957.1054.7071.2929.18754.1875.2929.4419.2929.7071s-.10536.5196-.2929.7071c-.18753.1875-.44189.2929-.7071.2929-.26522 0-.51957-.1054-.70711-.2929s-.29289-.4419-.29289-.7071z" fill="rgb(0,0,0)" fill-rule="evenodd"/></svg>