<svg id="Capa_1" enable-background="new 0 0 512 512" height="512" viewBox="0 0 512 512" width="512" xmlns="http://www.w3.org/2000/svg"><g transform="rotate(45, 256, 256), translate(70 70)"><path d="m182.469 485.299c4.659 11.867 17.154 18.688 29.655 16.187 8.416-1.683 15.483-7.365 18.933-15.224l77.87-177.334 177.334-77.87c7.859-3.451 13.54-10.517 15.224-18.933 2.5-12.501-4.32-24.996-16.187-29.655l-433.974-170.376c-11.203-4.398-23.948-1.74-32.459 6.771-8.511 8.511-11.169 21.256-6.771 32.459z" fill="#ffe671"/><g><path d="m206.95 512c-7.27 0-14.3-2.16-20.33-6.23-6.1-4.13-10.75-9.94-13.46-16.82l-170.37-433.97c-1.85-4.71-2.79-9.66-2.79-14.71 0-5.27 1.01-10.41 3.01-15.28 2.03-4.96 4.99-9.4 8.78-13.19 3.8-3.8 8.23-6.75 13.19-8.79 4.87-2 10.02-3.01 15.28-3.01h.03c5.04 0 9.98.94 14.69 2.79l221.04 86.78h.011c5.13 2.02 7.659 7.83 5.649 12.96-.75 1.91-2.04 3.52-3.74 4.65-2.699 1.81-6.18 2.2-9.229 1l-221.041-86.78c-2.37-.93-4.86-1.4-7.4-1.4-5.42 0-10.51 2.11-14.33 5.94-3.83 3.82-5.94 8.91-5.94 14.33 0 2.54.47 5.03 1.4 7.4l170.38 433.97c2.42 6.2 8.52 10.36 15.17 10.36 1.07 0 2.15-.11 3.21-.32 5.22-1.04 9.6-4.57 11.74-9.44l77.87-177.33c1.011-2.3 2.84-4.13 5.141-5.14l177.33-77.87c4.869-2.14 8.399-6.52 9.439-11.73.21-1.06.32-2.14.32-3.22 0-6.66-4.16-12.75-10.36-15.17l-129.15-50.71c-2.49-.97-4.44-2.86-5.511-5.31-1.069-2.45-1.12-5.16-.149-7.65 1.52-3.86 5.17-6.35 9.319-6.35 1.25 0 2.48.24 3.65.7l129.15 50.7c6.88 2.71 12.689 7.36 16.819 13.46 4.07 6.04 6.23 13.07 6.23 20.33 0 2.39-.24 4.79-.71 7.14-2.32 11.6-10.17 21.37-21.01 26.12l-173.758 76.31-76.31 173.76c-4.75 10.84-14.52 18.69-26.13 21.01-2.35.47-4.74.71-7.13.71zm107.3-386.68v-.05.05c-1.25 0-2.47-.23-3.65-.69-5.13-2.02-7.67-7.83-5.649-12.97 1.51-3.85 5.17-6.34 9.31-6.34 1.25 0 2.48.23 3.65.69 5.13 2.02 7.67 7.83 5.649 12.96-1.51 3.86-5.161 6.35-9.31 6.35z"/><path d="m200.003 391.002c-3.987 0-7.754-2.4-9.306-6.334l-56-142c-2.026-5.138.496-10.945 5.634-12.971 5.139-2.026 10.945.497 12.971 5.634l56 142c2.026 5.138-.496 10.945-5.634 12.971-1.204.476-2.445.7-3.665.7z"/></g></g></svg>