<svg height="512" viewBox="0 0 32 32" width="512" xmlns="http://www.w3.org/2000/svg"><g id="timer"><path d="m22 6.7v-1.7a3 3 0 0 0 -3-3h-2a3 3 0 0 0 -3 3v1.7a12 12 0 0 0 -6.06 4.75 1 1 0 1 0 1.68 1.1 10 10 0 1 1 4.21 14.54 1 1 0 0 0 -.83 1.82 12 12 0 1 0 9-22.21zm-6-.51v-1.19a1 1 0 0 1 1-1h2a1 1 0 0 1 1 1v1.18a12 12 0 0 0 -2-.18 12.1 12.1 0 0 0 -2 .19z"/><path d="m23.78 13.38a1 1 0 0 0 -1.4-.16l-2.81 2.24a2.89 2.89 0 0 0 -1.57-.46 3 3 0 1 0 3 3 2.93 2.93 0 0 0 -.18-1l2.8-2.24a1 1 0 0 0 .16-1.38zm-5.78 5.62a1 1 0 1 1 1-1 1 1 0 0 1 -1 1z"/><path d="m11 15h-6a1 1 0 0 0 0 2h6a1 1 0 0 0 0-2z"/><path d="m11 19h-8a1 1 0 0 0 0 2h8a1 1 0 0 0 0-2z"/><path d="m11 23h-6a1 1 0 0 0 0 2h6a1 1 0 0 0 0-2z"/></g></svg>