<svg id="Layer_1" enable-background="new 0 0 512 512" height="512" viewBox="0 0 512 512" width="512" xmlns="http://www.w3.org/2000/svg"><g><g><g><path d="m255.997 15.007c-133.104.003-241 107.904-241 241 0 133.105 107.896 241 240.996 241 133.104 0 241.004-107.895 241.004-240.997 0-133.099-107.9-241.003-241-241.003z" fill="#ff8db2"/></g><g><path d="m368.464 223.877h-224.933c-17.747 0-32.135 14.385-32.132 32.133-.003 17.746 14.387 32.137 32.132 32.134h224.933c17.748 0 32.133-14.385 32.133-32.137 0-17.745-14.387-32.134-32.133-32.13z" fill="#e7f0ef"/></g></g><g><path d="m437.019 74.982c-48.353-48.353-112.64-74.982-181.019-74.982-68.382.002-132.669 26.631-181.021 74.984-48.351 48.352-74.979 112.637-74.979 181.016 0 68.383 26.628 132.67 74.979 181.021 48.35 48.351 112.636 74.979 181.017 74.979s132.669-26.628 181.021-74.979c48.354-48.35 74.983-112.637 74.983-181.018 0-68.38-26.629-132.667-74.981-181.021zm-181.023 407.018c-124.614 0-225.996-101.383-225.996-226 0-124.614 101.383-225.997 226-226 124.617 0 226 101.385 226 226.003 0 124.615-101.385 225.997-226.004 225.997z"/><path d="m368.467 208.87h-224.933c-12.59 0-24.427 4.902-33.328 13.804-8.903 8.903-13.806 20.74-13.804 33.326-.002 12.589 4.899 24.426 13.801 33.329s20.737 13.808 33.325 13.808h224.938c25.989 0 47.133-21.146 47.133-47.137.001-25.987-21.14-47.13-47.132-47.13zm0 64.267h-224.936l-.001 15v-15s-.001 0-.002 0c-4.573 0-8.874-1.782-12.109-5.019s-5.018-7.538-5.017-12.118c-.001-4.575 1.78-8.877 5.016-12.112s7.539-5.018 12.116-5.018h224.939c9.443 0 17.126 7.685 17.126 17.13.001 9.449-7.685 17.137-17.132 17.137z"/></g></g></svg>