<svg id="Icons" enable-background="new 0 0 128 128" height="512" viewBox="0 0 128 128" width="512" xmlns="http://www.w3.org/2000/svg"><path id="Click" d="m63 123c-.195 0-.393-.014-.592-.043-1.531-.23-2.795-1.324-3.24-2.809l-24-80c-.422-1.408-.037-2.936 1.004-3.977 1.043-1.041 2.58-1.428 3.977-1.004l80 24c1.484.445 2.578 1.709 2.809 3.24.229 1.533-.449 3.061-1.738 3.92l-19.939 13.293 20.549 20.551c1.563 1.563 1.563 4.094 0 5.656l-16 16c-1.563 1.563-4.094 1.563-5.656 0l-20.551-20.549-13.293 19.939c-.75 1.125-2.006 1.783-3.33 1.783zm16-32c1.057 0 2.074.418 2.828 1.172l21.172 21.172 10.343-10.344-21.171-21.172c-.848-.848-1.27-2.029-1.152-3.223.117-1.191.764-2.27 1.762-2.934l16.926-11.283-64.74-19.422 19.422 64.74 11.283-16.926c.664-.998 1.742-1.645 2.934-1.762.131-.012.262-.018.393-.018zm-53.172-65.172c1.563-1.563 1.563-4.094 0-5.656l-8-8c-1.563-1.563-4.094-1.563-5.656 0s-1.563 4.094 0 5.656l8 8c.781.781 1.804 1.172 2.828 1.172s2.047-.391 2.828-1.172zm-2.828 13.172c0-2.209-1.791-4-4-4h-12c-2.209 0-4 1.791-4 4s1.791 4 4 4h12c2.209 0 4-1.791 4-4zm-5.172 26.828 8-8c1.563-1.563 1.563-4.094 0-5.656s-4.094-1.563-5.656 0l-8 8c-1.563 1.563-1.563 4.094 0 5.656.781.781 1.804 1.172 2.828 1.172s2.047-.391 2.828-1.172zm40-40 8-8c1.563-1.563 1.563-4.094 0-5.656s-4.094-1.563-5.656 0l-8 8c-1.563 1.563-1.563 4.094 0 5.656.781.781 1.804 1.172 2.828 1.172s2.047-.391 2.828-1.172zm-14.828-6.828v-12c0-2.209-1.791-4-4-4s-4 1.791-4 4v12c0 2.209 1.791 4 4 4s4-1.791 4-4z"/></svg>